<?xml version="1.0" standalone="no"?>
<!DOCTYPE svg PUBLIC "-//W3C//DTD SVG 20010904//EN"
 "http://www.w3.org/TR/2001/REC-SVG-20010904/DTD/svg10.dtd">
<svg version="1.0" xmlns="http://www.w3.org/2000/svg"
 width="557.000000pt" height="548.000000pt" viewBox="0 0 557.000000 548.000000"
 preserveAspectRatio="xMidYMid meet">

<g transform="translate(0.000000,548.000000) scale(0.100000,-0.100000)"
fill="#000000" stroke="none">
<path d="M2555 5354 c-16 -2 -73 -9 -125 -15 -230 -26 -516 -107 -746 -211
-467 -211 -882 -584 -1145 -1030 -174 -293 -291 -633 -341 -988 -17 -125 -17
-515 0 -640 50 -355 167 -695 341 -988 215 -364 539 -688 903 -903 293 -174
633 -291 988 -341 125 -17 515 -17 640 0 355 50 695 167 988 341 364 215 688
539 903 903 174 293 291 633 341 988 17 125 17 515 0 640 -50 355 -167 695
-341 988 -215 364 -539 688 -903 903 -285 169 -612 284 -953 335 -95 14 -486
27 -550 18z m396 -274 c555 -55 1041 -282 1424 -665 590 -591 815 -1457 585
-2258 -196 -683 -696 -1235 -1359 -1501 -329 -133 -712 -189 -1052 -156 -555
55 -1041 282 -1424 665 -590 591 -815 1457 -585 2258 281 978 1170 1654 2191
1666 64 0 163 -4 220 -9z"/>
<path d="M2525 4970 c-899 -103 -1632 -718 -1879 -1577 -63 -218 -80 -349 -80
-603 0 -254 17 -385 80 -603 209 -728 773 -1292 1501 -1501 218 -63 349 -80
603 -80 254 0 385 17 603 80 728 209 1292 773 1501 1501 63 218 80 349 80 603
0 254 -17 385 -80 603 -234 813 -903 1411 -1744 1557 -142 24 -451 35 -585 20z
m-1113 -1980 l405 -761 409 758 409 758 93 3 92 3 0 -886 0 -885 -120 0 -120
0 -2 712 -3 712 -395 -724 c-386 -708 -396 -725 -425 -725 -29 0 -37 14 -415
727 -212 399 -388 730 -392 734 -5 4 -8 -317 -8 -714 l0 -722 -55 0 -55 0 0
885 0 885 89 0 88 0 405 -760z m2993 726 c93 -38 159 -87 211 -158 98 -134
103 -289 13 -430 -67 -104 -221 -195 -339 -199 -21 -1 -8 -5 34 -10 164 -21
274 -67 354 -146 77 -77 105 -144 110 -266 7 -160 -33 -271 -135 -368 -71 -69
-106 -90 -208 -126 l-80 -28 -407 -3 -408 -3 0 886 0 886 393 -3 392 -3 70
-29z"/>
<path d="M3780 3306 l0 -326 165 0 c90 0 188 5 217 11 115 25 206 91 253 186
24 49 29 71 29 138 1 136 -52 221 -174 279 l-65 31 -212 3 -213 3 0 -325z"/>
<path d="M3780 2480 l0 -381 243 3 243 3 66 33 c129 63 200 177 200 322 0 138
-63 256 -171 321 -105 64 -141 71 -373 76 l-208 5 0 -382z"/>
</g>
</svg>
